  <svg
      width="32"
      height="32"
      viewBox="0 0 32 32"
      fill="none"
      xmlns="http://www.w3.org/2000/svg"
    >
      <path
        d="M0 16C0 7.16344 7.16344 0 16 0C24.8366 0 32 7.16344 32 16C32 24.8366 24.8366 32 16 32C7.16344 32 0 24.8366 0 16Z"
        fill="#FECDE0"
      />
      <path
        d="M12.7986 9.34983C12.6769 8.01128 13.7309 6.85718 15.075 6.85718H16.9262C18.2703 6.85718 19.3243 8.01128 19.2026 9.34983L18.4753 17.3498C18.3683 18.5272 17.3811 19.4286 16.199 19.4286H15.8022C14.6201 19.4286 13.6329 18.5272 13.5259 17.3498L12.7986 9.34983Z"
        fill="#FA3D86"
      />
      <path
        d="M13.7148 23.9999C13.7148 22.7376 14.7382 21.7142 16.0006 21.7142C17.2629 21.7142 18.2863 22.7376 18.2863 23.9999C18.2863 25.2623 17.2629 26.2857 16.0006 26.2857C14.7382 26.2857 13.7148 25.2623 13.7148 23.9999Z"
        fill="#FA3D86"
      />
    </svg>