<?xml version="1.0" encoding="UTF-8"?>
<svg xmlns="http://www.w3.org/2000/svg" xmlns:xlink="http://www.w3.org/1999/xlink" width="170px" height="6px" viewBox="0 0 187 6" version="1.1">
<g id="surface1">
<path style="fill:none;stroke-width:13;stroke-linecap:round;stroke-linejoin:round;stroke:#3F52E4;stroke-opacity:1;stroke-miterlimit:10;" d="M 19.996407 411.985026 L 20.988469 412.431641 L 22.012533 412.846354 L 23.996658 413.675781 L 24.98872 414.058594 L 26.012784 414.473307 L 27.004846 414.824219 L 27.996908 415.207031 L 28.988971 415.557943 L 30.013035 415.908854 L 32.989221 416.865885 L 34.013285 417.152995 L 35.005348 417.440104 L 36.989472 417.950521 L 38.013536 418.173828 L 39.99766 418.620443 L 40.989723 418.811849 L 42.013787 419.003255 L 43.997911 419.322266 L 44.989973 419.44987 L 46.014037 419.577474 L 48.990224 419.864583 L 50.014288 419.896484 L 51.00635 419.960286 L 51.998412 419.992187 L 55.006601 419.992187 L 55.998663 419.960286 L 56.990725 419.896484 L 58.014789 419.832682 L 59.006852 419.76888 L 59.998914 419.673177 L 60.990976 419.545573 L 62.01504 419.417969 L 63.007102 419.290365 L 64.991227 418.971354 L 66.015291 418.779948 L 67.007353 418.588542 L 68.991477 418.141927 L 70.015541 417.886719 L 71.999666 417.376302 L 72.991728 417.089193 L 74.015792 416.802083 L 76.991979 415.845052 L 77.984041 415.494141 L 79.008105 415.143229 L 81.984291 413.994792 L 83.008356 413.611979 L 84.99248 412.782552 L 85.984542 412.335937 L 87.008606 411.921224 L 88.000668 411.474609 L 88.992731 410.996094 L 89.984793 410.549479 L 91.008857 410.070964 L 93.985043 408.635417 L 95.009108 408.125 L 96.00117 407.614583 L 96.993232 407.136068 L 97.985294 406.625651 L 99.009358 406.115234 L 100.00142 405.572917 L 101.985545 404.552083 L 103.009609 404.009766 L 104.001671 403.499349 L 104.993733 402.957031 L 105.985795 402.446615 L 107.00986 401.904297 L 108.001922 401.361979 L 108.993984 400.851562 L 109.986046 400.309245 L 111.01011 399.798828 L 112.002172 399.25651 L 113.986297 398.235677 L 115.010361 397.693359 L 116.994485 396.672526 L 117.986547 396.19401 L 119.010612 395.683594 L 120.002674 395.205078 L 120.994736 394.694661 L 121.986798 394.216146 L 123.010862 393.73763 L 124.002924 393.291016 L 124.994987 392.8125 L 125.987049 392.365885 L 127.011113 391.919271 L 128.003175 391.504557 L 128.995237 391.057943 L 129.987299 390.643229 L 131.011364 390.260417 L 132.003426 389.845703 L 133.98755 389.080078 L 135.011614 388.729167 L 136.995739 388.027344 L 137.987801 387.708333 L 139.011865 387.389323 L 141.988051 386.527995 L 143.012116 386.272786 L 144.99624 385.76237 L 145.988302 385.539062 L 147.012366 385.347656 L 148.996491 384.964844 L 149.988553 384.805339 L 151.012617 384.645833 L 152.996741 384.390625 L 153.988803 384.294922 L 155.012868 384.199219 L 156.996992 384.071615 L 157.989054 384.039714 L 159.013118 384.007812 L 160.997243 384.007812 L 161.989305 384.039714 L 163.013369 384.071615 L 164.005431 384.103516 L 164.997493 384.167318 L 165.989555 384.263021 L 167.01362 384.358724 L 168.005682 384.454427 L 168.997744 384.582031 L 169.989806 384.741536 L 171.01387 384.901042 L 172.005932 385.060547 L 173.990057 385.443359 L 175.014121 385.666667 L 176.006183 385.889974 L 177.990307 386.400391 L 179.014372 386.6875 L 180.998496 387.261719 L 181.990558 387.580729 L 183.014622 387.89974 L 184.006684 388.21875 L 185.990809 388.920573 L 187.014873 389.303385 L 188.998997 390.06901 L 189.991059 390.483724 L 191.015124 390.898437 L 192.999248 391.727865 L 193.99131 392.174479 L 195.015374 392.621094 L 196.007436 393.067708 L 197.991561 394.02474 L 199.015625 394.503255 L 200.999749 395.460286 L 201.991811 395.970703 L 203.015876 396.449219 L 205.992062 397.980469 L 206.984124 398.522786 L 208.008189 399.033203 L 209.000251 399.54362 L 209.992313 400.085937 L 210.984375 400.596354 L 212.008439 401.138672 L 213.000501 401.68099 L 213.992564 402.191406 L 214.984626 402.733724 L 216.00869 403.244141 L 217.000752 403.786458 L 217.992814 404.296875 L 218.984876 404.839193 L 220.008941 405.349609 L 221.001003 405.860026 L 221.993065 406.402344 L 222.985127 406.91276 L 224.009191 407.391276 L 225.993316 408.412109 L 226.985378 408.890625 L 228.009442 409.369141 L 230.985628 410.804687 L 232.009693 411.251302 L 234.985879 412.591146 L 236.009943 413.005859 L 237.994068 413.835286 L 238.98613 414.218099 L 240.010194 414.600911 L 241.002256 414.983724 L 242.98638 415.685547 L 244.010445 416.036458 L 245.994569 416.674479 L 246.986631 416.961589 L 248.010695 417.248698 L 249.002757 417.535807 L 250.986882 418.046224 L 252.010946 418.269531 L 253.003008 418.492839 L 254.987132 418.875651 L 256.011197 419.067057 L 257.003259 419.226562 L 257.995321 419.354167 L 258.987383 419.513672 L 260.011447 419.609375 L 261.995572 419.800781 L 262.987634 419.864583 L 264.011698 419.928385 L 265.995822 419.992187 L 268.011949 419.992187 L 269.996073 419.928385 L 270.988135 419.864583 L 272.012199 419.800781 L 273.004261 419.736979 L 273.996324 419.609375 L 274.988386 419.513672 L 276.01245 419.386068 L 278.988636 418.907552 L 280.012701 418.716146 L 282.988887 418.046224 L 284.012951 417.791016 L 285.997076 417.280599 L 286.989138 416.99349 L 288.013202 416.674479 L 289.005264 416.38737 L 289.997326 416.036458 L 290.989388 415.717448 L 292.013453 415.366536 L 293.005515 415.015625 L 294.989639 414.25 L 296.013703 413.867187 L 298.98989 412.623047 L 300.013954 412.176432 L 302.99014 410.836589 L 304.014205 410.358073 L 305.006267 409.911458 L 305.998329 409.432943 L 306.990391 408.922526 L 308.014455 408.44401 L 309.006517 407.933594 L 309.99858 407.455078 L 310.990642 406.944661 L 312.014706 406.434245 L 313.006768 405.923828 L 313.99883 405.38151 L 314.990892 404.871094 L 316.014957 404.360677 L 317.999081 403.276042 L 318.991143 402.765625 L 320.015207 402.223307 L 321.007269 401.712891 L 321.999332 401.170573 L 322.991394 400.660156 L 324.015458 400.117839 L 325.00752 399.607422 L 325.999582 399.065104 L 326.991644 398.554687 L 328.015709 398.044271 L 329.007771 397.501953 L 329.999833 396.991536 L 330.991895 396.513021 L 332.015959 396.002604 L 333.008021 395.492187 L 335.984208 394.056641 L 337.008272 393.578125 L 338.000334 393.099609 L 339.984459 392.20638 L 341.008523 391.759766 L 343.984709 390.515625 L 345.008773 390.100911 L 347.98496 388.952474 L 349.009024 388.601562 L 350.993148 387.89974 L 351.985211 387.580729 L 353.009275 387.29362 L 354.001337 386.974609 L 354.993399 386.6875 L 355.985461 386.432292 L 357.009525 386.177083 L 358.001588 385.921875 L 359.985712 385.47526 L 361.009776 385.283854 L 362.9939 384.901042 L 363.985963 384.741536 L 365.010027 384.613932 L 366.994151 384.358724 L 367.986213 384.263021 L 369.010277 384.167318 L 370.00234 384.103516 L 371.986464 384.039714 L 373.010528 384.007812 L 374.994652 384.007812 L 375.986715 384.039714 L 377.010779 384.071615 L 378.994903 384.199219 L 379.986965 384.294922 L 381.011029 384.390625 L 382.995154 384.645833 L 383.987216 384.805339 L 385.01128 384.964844 L 386.003342 385.124349 L 386.995404 385.315755 L 387.987467 385.539062 L 389.011531 385.76237 L 390.003593 385.985677 L 391.987717 386.496094 L 393.011781 386.783203 L 394.995906 387.357422 L 395.987968 387.676432 L 397.012032 388.027344 L 398.004094 388.346354 L 398.996156 388.697266 L 399.988219 389.080078 L 401.012283 389.43099 L 402.004345 389.813802 L 402.996407 390.228516 L 403.988469 390.611328 L 405.012533 391.026042 L 406.004596 391.472656 L 406.996658 391.88737 L 407.98872 392.333984 L 409.012784 392.780599 L 410.004846 393.259115 L 410.996908 393.705729 L 411.988971 394.184245 L 413.013035 394.66276 L 414.005097 395.173177 L 414.997159 395.651693 L 415.989221 396.162109 L 417.013285 396.640625 L 419.989472 398.171875 L 421.013536 398.714193 L 422.005598 399.224609 L 422.99766 399.766927 L 423.989723 400.277344 L 425.013787 400.819661 L 426.005849 401.330078 L 426.997911 401.872396 L 427.989973 402.382812 L 429.014037 402.92513 L 430.0061 403.435547 L 430.998162 403.977865 L 431.990224 404.488281 L 433.014288 405.030599 L 434.998412 406.051432 L 435.990475 406.59375 L 437.014539 407.072266 L 439.990725 408.603516 L 441.014789 409.082031 L 443.990976 410.517578 L 445.01504 410.964193 L 446.007102 411.442708 L 446.999164 411.889323 L 447.991227 412.304036 L 449.015291 412.750651 L 450.999415 413.580078 L 451.991477 413.962891 L 453.015541 414.377604 L 454.007604 414.728516 L 454.999666 415.111328 L 455.991728 415.46224 L 457.015792 415.813151 L 458.007854 416.132161 L 458.999916 416.483073 L 460.984041 417.057292 L 462.008105 417.344401 L 463.000167 417.63151 L 463.992229 417.886719 L 464.984291 418.110026 L 466.008356 418.365234 L 467.000418 418.556641 L 467.99248 418.779948 L 468.984542 418.939453 L 470.008606 419.130859 L 471.000668 419.290365 L 472.984793 419.545573 L 474.008857 419.641276 L 475.992981 419.832682 L 476.985043 419.896484 L 478.009108 419.960286 L 479.00117 419.992187 L 482.009358 419.992187 L 483.993483 419.928385 L 484.985545 419.864583 L 486.009609 419.76888 L 487.993733 419.577474 L 488.985795 419.44987 L 490.00986 419.322266 L 492.986046 418.84375 L 494.01011 418.620443 L 495.002172 418.429036 L 495.994235 418.205729 L 496.986297 417.950521 L 498.010361 417.695312 L 499.002423 417.440104 L 500.986547 416.865885 L 502.010612 416.578776 L 503.002674 416.259766 L 503.994736 415.908854 L 504.986798 415.589844 L 506.010862 415.238932 L 508.987049 414.090495 L 510.011113 413.707682 L 512.987299 412.463542 L 514.011364 412.016927 L 516.98755 410.677083 L 518.011614 410.198568 L 520.987801 408.763021 L 522.011865 408.252604 L 523.003927 407.742187 L 523.995989 407.263672 L 524.988051 406.753255 L 526.012116 406.242839 L 527.004178 405.700521 L 528.988302 404.679687 L 530.012366 404.13737 L 531.004428 403.626953 L 531.996491 403.084635 L 532.988553 402.574219 L 534.012617 402.031901 L 535.004679 401.521484 L 536.988803 400.436849 L 538.012868 399.926432 L 539.00493 399.384115 L 540.989054 398.363281 L 542.013118 397.852865 L 544.989305 396.321615 L 546.013369 395.811198 L 547.005431 395.332682 L 547.997493 394.822266 L 548.989555 394.34375 L 550.01362 393.865234 L 551.005682 393.41862 L 551.997744 392.940104 L 552.989806 392.49349 L 554.01387 392.046875 L 555.005932 391.60026 L 556.990057 390.770833 L 558.014121 390.35612 L 559.006183 389.941406 L 560.990307 389.175781 L 562.014372 388.82487 L 563.998496 388.123047 L 564.990558 387.804036 L 566.014622 387.485026 L 567.006684 387.166016 L 568.990809 386.591797 L 570.014873 386.336589 L 571.998997 385.826172 L 572.991059 385.602865 L 574.015124 385.411458 L 575.007186 385.188151 L 575.999248 385.028646 L 576.99131 384.83724 L 578.015374 384.709635 L 579.007436 384.55013 L 579.999499 384.422526 L 580.991561 384.326823 L 582.015625 384.23112 L 584.991811 384.039714 L 586.015876 384.007812 L 588.992062 384.007812 L 589.984124 384.039714 L 591.008189 384.103516 L 592.992313 384.23112 L 593.984375 384.326823 L 595.008439 384.454427 L 596.000501 384.55013 L 597.984626 384.869141 L 599.00869 385.028646 L 601.984876 385.602865 L 603.008941 385.858073 L 604.001003 386.08138 L 605.985127 386.591797 L 607.009191 386.878906 L 608.001253 387.166016 L 609.985378 387.804036 L 611.009442 388.123047 L 612.993566 388.82487 L 613.985628 389.207682 L 615.009693 389.590495 L 616.993817 390.35612 L 617.985879 390.770833 L 619.009943 391.185547 L 620.002005 391.632161 L 620.994068 392.046875 L 621.98613 392.49349 L 623.010194 392.972005 L 624.002256 393.41862 L 625.98638 394.375651 L 627.010445 394.854167 L 628.002507 395.332682 L 628.994569 395.843099 L 629.986631 396.321615 L 631.010695 396.832031 L 632.99482 397.852865 L 633.986882 398.395182 L 635.010946 398.905599 L 636.003008 399.416016 L 636.99507 399.958333 L 637.987132 400.46875 L 639.011197 401.011068 L 640.003259 401.521484 L 641.987383 402.60612 L 643.011447 403.116536 L 644.003509 403.658854 L 644.995572 404.169271 L 645.987634 404.711589 L 647.011698 405.222005 L 649.987884 406.753255 L 651.011949 407.263672 L 652.996073 408.284505 L 653.988135 408.763021 L 655.012199 409.273437 L 656.996324 410.230469 L 657.988386 410.677083 L 659.01245 411.155599 L 660.996574 412.048828 L 661.988636 412.463542 L 663.012701 412.910156 L 664.004763 413.32487 L 664.996825 413.707682 L 665.988887 414.122396 L 667.012951 414.505208 L 668.005013 414.888021 L 669.989138 415.589844 L 671.013202 415.940755 L 673.989388 416.897786 L 675.013453 417.184896 L 676.005515 417.472005 L 677.989639 417.982422 L 679.013703 418.205729 L 680.997828 418.652344 L 681.98989 418.84375 L 683.013954 419.003255 L 684.006016 419.194661 L 684.998078 419.322266 L 685.99014 419.481771 L 687.014205 419.577474 L 688.006267 419.705078 L 688.998329 419.76888 L 689.990391 419.864583 L 691.014455 419.928385 L 692.99858 419.992187 L 696.006768 419.992187 L 696.99883 419.928385 L 697.990892 419.896484 L 699.014957 419.832682 L 701.991143 419.545573 L 703.015207 419.417969 L 705.991394 418.939453 L 707.015458 418.748047 L 708.00752 418.556641 L 709.991644 418.110026 L 711.015709 417.854818 L 712.999833 417.344401 L 713.991895 417.057292 L 715.015959 416.770182 L 717.992146 415.813151 L 718.984208 415.46224 L 720.008272 415.079427 L 721.000334 414.728516 L 722.984459 413.962891 L 724.008523 413.548177 L 726.984709 412.304036 L 728.008773 411.857422 L 729.992898 410.964193 L 730.98496 410.485677 L 732.009024 410.007161 L 734.985211 408.571615 L 736.009275 408.061198 L 737.001337 407.582682 L 738.985461 406.561849 L 740.009525 406.051432 L 741.001588 405.509115 L 742.985712 404.488281 L 744.009776 403.945964 L 745.001838 403.435547 L 745.9939 402.893229 L 746.985963 402.382812 L 748.010027 401.840495 L 749.002089 401.298177 L 749.994151 400.78776 L 750.986213 400.245443 L 752.010277 399.735026 L 753.00234 399.192708 L 754.986464 398.171875 L 756.010528 397.661458 L 758.986715 396.130208 L 760.010779 395.619792 L 762.986965 394.184245 L 764.011029 393.705729 L 765.003092 393.227214 L 766.987216 392.333984 L 768.01128 391.88737 L 769.003342 391.440755 L 770.987467 390.611328 L 772.011531 390.196615 L 774.987717 389.048177 L 776.011781 388.697266 L 777.995906 387.995443 L 778.987968 387.676432 L 780.012032 387.357422 L 782.988219 386.496094 L 784.012283 386.240885 L 785.004345 385.985677 L 786.988469 385.539062 L 788.012533 385.315755 L 789.004596 385.124349 L 789.996658 384.964844 L 790.98872 384.773437 L 792.012784 384.645833 L 793.996908 384.390625 L 794.988971 384.294922 L 796.013035 384.199219 L 797.997159 384.071615 L 798.989221 384.039714 L 800.013285 384.007812 L 801.99741 384.007812 L 802.989472 384.039714 L 804.013536 384.071615 L 805.005598 384.103516 L 805.99766 384.199219 L 806.989723 384.263021 L 808.013787 384.358724 L 810.989973 384.741536 L 812.014037 384.901042 L 814.990224 385.47526 L 816.014288 385.698568 L 817.00635 385.921875 L 818.990475 386.432292 L 820.014539 386.719401 L 821.998663 387.29362 L 822.990725 387.61263 L 824.014789 387.931641 L 825.006852 388.250651 L 825.998914 388.601562 L 826.990976 388.984375 L 828.01504 389.335286 L 829.007102 389.718099 L 829.999164 390.132812 L 830.991227 390.515625 L 832.015291 390.930339 L 833.007353 391.345052 L 834.991477 392.238281 L 836.015541 392.684896 L 837.007604 393.13151 L 837.999666 393.610026 L 838.991728 394.056641 L 840.015792 394.535156 L 841.007854 395.045573 L 841.999916 395.524089 L 842.991979 396.034505 L 843.984041 396.513021 L 845.008105 397.023437 L 846.992229 398.044271 L 847.984291 398.586589 L 849.008356 399.097005 L 850.000418 399.607422 L 850.99248 400.14974 L 851.984542 400.660156 L 853.008606 401.202474 L 854.000668 401.712891 L 855.984793 402.797526 L 857.008857 403.307943 L 858.000919 403.85026 L 858.992981 404.360677 L 859.985043 404.902995 L 861.009108 405.413411 L 863.985294 406.944661 L 865.009358 407.455078 L 866.993483 408.475911 L 867.985545 408.954427 L 869.009609 409.432943 L 871.985795 410.86849 L 873.00986 411.315104 L 874.993984 412.208333 L 875.986046 412.623047 L 877.01011 413.069661 L 878.002172 413.484375 L 879.986297 414.25 L 881.010361 414.632812 L 882.002423 415.015625 L 883.986547 415.717448 L 885.010612 416.068359 L 886.994736 416.70638 L 887.986798 416.99349 L 889.010862 417.280599 L 890.002924 417.567708 L 891.987049 418.078125 L 893.011113 418.301432 L 894.003175 418.52474 L 895.987299 418.907552 L 897.011364 419.067057 L 898.995488 419.386068 L 899.98755 419.513672 L 901.011614 419.641276 L 902.003676 419.736979 L 903.987801 419.864583 L 905.011865 419.928385 L 906.995989 419.992187 L 909.012116 419.992187 L 910.99624 419.928385 L 911.988302 419.864583 L 913.012366 419.800781 L 914.996491 419.609375 L 915.988553 419.481771 L 917.012617 419.354167 L 918.004679 419.226562 L 918.996741 419.067057 L 919.988803 418.875651 L 921.012868 418.684245 L 922.00493 418.492839 L 922.996992 418.269531 L 923.989054 418.014323 L 925.013118 417.791016 L 926.00518 417.503906 L 926.997243 417.248698 L 927.989305 416.961589 L 929.013369 416.642578 L 931.989555 415.685547 L 933.01362 415.334635 L 934.005682 414.951823 L 934.997744 414.600911 L 935.989806 414.218099 L 937.01387 413.803385 L 939.990057 412.559245 L 941.014121 412.144531 L 942.998245 411.251302 L 943.990307 410.772786 L 945.014372 410.326172 L 947.990558 408.890625 L 949.014622 408.380208 L 950.006684 407.901693 L 951.990809 406.880859 L 953.014873 406.370443 L 954.006935 405.860026 L 954.998997 405.317708 L 955.991059 404.807292 L 957.015124 404.296875 L 958.007186 403.754557 L 958.999248 403.244141 L 959.99131 402.701823 L 961.015374 402.159505 L 962.007436 401.649089 L 962.999499 401.106771 L 963.991561 400.596354 L 965.015625 400.054036 L 966.007687 399.54362 L 966.999749 399.001302 L 967.991811 398.490885 L 969.015876 397.980469 L 972.984124 395.938802 L 974.008189 395.460286 L 975.000251 394.94987 L 976.984375 393.992839 L 978.008439 393.514323 L 979.000501 393.067708 L 979.992564 392.589193 L 980.984626 392.142578 L 982.00869 391.727865 L 983.000752 391.28125 L 984.984876 390.451823 L 986.008941 390.06901 L 987.001003 389.654297 L 987.993065 389.271484 L 988.985127 388.920573 L 990.009191 388.569661 L 991.993316 387.867839 L 992.985378 387.548828 L 994.009442 387.229818 L 995.993566 386.655599 L 996.985628 386.400391 L 998.009693 386.145182 L 999.001755 385.889974 L 1000.985879 385.443359 L 1002.009943 385.251953 L 1003.002005 385.060547 L 1004.98613 384.741536 L 1006.010194 384.582031 L 1007.002256 384.454427 L 1008.98638 384.263021 L 1010.010445 384.167318 L 1011.002507 384.103516 L 1011.994569 384.071615 L 1012.986631 384.007812 L 1015.99482 384.007812 L 1016.986882 384.039714 L 1018.010946 384.071615 L 1019.003008 384.135417 L 1019.99507 384.23112 L 1020.987132 384.294922 L 1022.011197 384.422526 L 1023.003259 384.518229 L 1023.995321 384.677734 L 1024.987383 384.805339 L 1026.011447 384.964844 L 1027.995572 385.347656 L 1028.987634 385.570964 L 1030.011698 385.794271 L 1031.00376 386.017578 L 1032.987884 386.527995 L 1034.011949 386.815104 L 1035.004011 387.102214 L 1035.996073 387.421224 L 1036.988135 387.708333 L 1038.012199 388.059245 L 1039.004261 388.378255 L 1039.996324 388.761068 L 1040.988386 389.111979 L 1042.01245 389.494792 L 1043.996574 390.260417 L 1044.988636 390.67513 L 1046.012701 391.089844 L 1047.004763 391.504557 L 1048.988887 392.397786 L 1050.012951 392.844401 L 1051.005013 393.291016 L 1052.989138 394.248047 L 1054.013202 394.726562 L 1055.005264 395.205078 L 1055.997326 395.715495 L 1056.989388 396.19401 L 1058.013453 396.704427 L 1060.989639 398.235677 L 1062.013703 398.777995 L 1063.997828 399.798828 L 1064.98989 400.341146 L 1066.013954 400.851562 L 1067.998078 401.936198 L 1068.99014 402.446615 L 1070.014205 402.988932 L 1071.006267 403.499349 L 1071.998329 404.041667 L 1072.990391 404.552083 L 1074.014455 405.094401 L 1076.990642 406.625651 L 1078.014706 407.136068 L 1079.99883 408.156901 L 1080.990892 408.635417 L 1082.014957 409.145833 L 1083.999081 410.102865 L 1084.991143 410.549479 L 1086.015207 411.027995 L 1088.991394 412.367839 L 1090.015458 412.782552 L 1092.991644 414.026693 L 1094.015709 414.409505 L 1095.007771 414.792318 L 1096.991895 415.494141 L 1098.015959 415.845052 L 1099.008021 416.195964 L 1100.000084 416.514974 L 1100.992146 416.802083 L 1101.984208 417.121094 L 1103.008272 417.376302 L 1104.000334 417.663411 L 1104.992396 417.91862 L 1105.984459 418.141927 L 1107.008523 418.365234 L 1108.000585 418.588542 L 1109.984709 418.971354 L 1111.008773 419.130859 L 1112.992898 419.44987 L 1113.98496 419.545573 L 1115.009024 419.673177 L 1116.001086 419.76888 L 1117.985211 419.896484 L 1119.009275 419.960286 L 1120.001337 419.992187 L 1123.009525 419.992187 L 1124.001588 419.960286 L 1125.985712 419.832682 L 1127.009776 419.76888 L 1128.9939 419.577474 L 1129.985963 419.44987 L 1131.010027 419.322266 L 1132.994151 419.003255 L 1133.986213 418.811849 L 1135.010277 418.620443 L 1136.994402 418.173828 L 1137.986464 417.91862 L 1139.010528 417.695312 L 1141.986715 416.833984 L 1143.010779 416.546875 L 1144.002841 416.227865 L 1144.994903 415.876953 L 1145.986965 415.557943 L 1147.011029 415.17513 L 1148.003092 414.824219 L 1149.987216 414.058594 L 1151.01128 413.64388 L 1152.003342 413.261068 L 1152.995404 412.846354 L 1153.987467 412.39974 L 1155.011531 411.953125 L 1156.003593 411.538411 L 1156.995655 411.059896 L 1157.987717 410.613281 L 1159.011781 410.134766 L 1161.987968 408.699219 L 1163.012032 408.188802 L 1164.004094 407.710286 L 1165.988219 406.689453 L 1167.012283 406.179036 L 1168.004345 405.66862 L 1168.996407 405.126302 L 1169.988469 404.615885 L 1171.012533 404.073568 L 1172.004596 403.563151 L 1172.996658 403.020833 L 1173.98872 402.510417 L 1175.012784 401.968099 L 1176.004846 401.457682 L 1176.996908 400.915365 L 1177.988971 400.404948 L 1179.013035 399.86263 L 1180.005097 399.352214 L 1180.997159 398.809896 L 1181.989221 398.299479 L 1183.013285 397.789062 L 1185.989472 396.257812 L 1187.013536 395.747396 L 1188.005598 395.26888 L 1188.99766 394.758464 L 1189.989723 394.279948 L 1191.013787 393.833333 L 1192.997911 392.876302 L 1193.989973 392.429687 L 1195.014037 391.983073 L 1196.0061 391.568359 L 1196.998162 391.121745 L 1197.990224 390.707031 L 1199.014288 390.292318 L 1201.990475 389.14388 L 1203.014539 388.792969 L 1205.990725 387.740234 L 1207.014789 387.453125 L 1208.006852 387.134115 L 1209.990976 386.559896 L 1211.01504 386.304687 L 1212.999164 385.794271 L 1213.991227 385.570964 L 1215.015291 385.379557 L 1216.999415 384.996745 L 1217.991477 384.83724 L 1219.015541 384.677734 L 1220.999666 384.422526 L 1221.991728 384.326823 L 1223.015792 384.23112 L 1224.007854 384.135417 L 1224.999916 384.103516 L 1225.991979 384.039714 L 1226.984041 384.007812 L 1229.992229 384.007812 L 1230.984291 384.039714 L 1232.008356 384.103516 L 1233.99248 384.23112 L 1234.984542 384.326823 L 1236.008606 384.454427 L 1237.992731 384.709635 L 1238.984793 384.869141 L 1240.008857 385.028646 L 1241.000919 385.220052 L 1241.992981 385.443359 L 1242.985043 385.634766 L 1244.009108 385.858073 L 1246.985294 386.623698 L 1248.009358 386.910807 L 1249.00142 387.229818 L 1249.993483 387.516927 L 1250.985545 387.835937 L 1252.009609 388.186849 L 1254.985795 389.239583 L 1256.00986 389.622396 L 1257.001922 390.005208 L 1258.986046 390.834635 L 1260.01011 391.249349 L 1261.002172 391.664062 L 1262.986297 392.557292 L 1264.010361 393.003906 L 1266.986547 394.439453 L 1268.010612 394.917969 L 1269.002674 395.396484 L 1269.994736 395.906901 L 1270.986798 396.385417 L 1272.010862 396.895833 L 1274.987049 398.427083 L 1276.011113 398.969401 L 1277.003175 399.479818 L 1277.995237 400.022135 L 1278.987299 400.532552 L 1280.011364 401.07487 L 1281.003426 401.585286 L 1281.995488 402.127604 L 1282.98755 402.638021 L 1284.011614 403.180339 L 1285.003676 403.722656 L 1286.987801 404.74349 L 1288.011865 405.285807 L 1290.988051 406.817057 L 1292.012116 407.327474 L 1293.99624 408.348307 L 1294.988302 408.826823 L 1296.012366 409.305339 L 1298.988553 410.740885 L 1300.012617 411.1875 L 1302.988803 412.527344 L 1304.012868 412.942057 L 1305.996992 413.771484 L 1306.989054 414.154297 L 1308.013118 414.537109 L 1309.00518 414.919922 L 1309.997243 415.270833 L 1310.989305 415.653646 L 1312.013369 415.972656 L 1314.989555 416.929687 L 1316.01362 417.216797 L 1317.005682 417.503906 L 1318.989806 418.014323 L 1320.01387 418.23763 L 1321.005932 418.460937 L 1322.990057 418.84375 L 1324.014121 419.035156 L 1325.998245 419.354167 L 1326.990307 419.481771 L 1328.014372 419.609375 L 1329.998496 419.800781 L 1330.990558 419.864583 L 1332.014622 419.928385 L 1333.998747 419.992187 L 1336.014873 419.992187 L 1338.991059 419.896484 L 1340.015124 419.832682 L 1341.999248 419.641276 L 1342.99131 419.513672 L 1344.015374 419.386068 L 1345.007436 419.258464 L 1345.999499 419.098958 L 1346.991561 418.907552 L 1348.015625 418.748047 L 1350.991811 418.078125 L 1352.015876 417.854818 L 1353.007938 417.567708 L 1354 417.3125 L 1355.984124 416.738281 L 1357.008189 416.419271 L 1358.000251 416.10026 L 1359.984375 415.398437 L 1361.008439 415.047526 L 1362.000501 414.696615 L 1362.992564 414.313802 L 1363.984626 413.899089 L 1365.00869 413.516276 L 1366.992814 412.686849 L 1367.984876 412.240234 L 1369.008941 411.79362 L 1370.993065 410.900391 L 1371.985127 410.421875 L 1373.009191 409.97526 L 1374.001253 409.496745 L 1374.993316 408.986328 L 1375.985378 408.507812 L 1377.009442 408.029297 L 1379.985628 406.498047 L 1381.009693 405.98763 L 1382.001755 405.477214 L 1382.993817 404.934896 L 1383.985879 404.424479 L 1385.009943 403.882161 L 1386.002005 403.371745 L 1386.994068 402.829427 L 1387.98613 402.31901 L 1389.010194 401.776693 L 1390.002256 401.266276 L 1391.98638 400.181641 L 1393.010445 399.671224 L 1394.002507 399.128906 L 1395.986631 398.108073 L 1397.010695 397.597656 L 1399.986882 396.066406 L 1401.010946 395.55599 L 1403.987132 394.120443 L 1405.011197 393.641927 L 1406.003259 393.163411 L 1407.987383 392.270182 L 1409.011447 391.823568 L 1410.003509 391.408854 L 1410.995572 390.96224 L 1411.987634 390.547526 L 1413.011698 390.164714 L 1414.00376 389.75 L 1414.995822 389.367187 L 1415.987884 389.016276 L 1417.011949 388.633464 L 1418.004011 388.282552 L 1419.988135 387.644531 L 1421.012199 387.325521 L 1423.988386 386.464193 L 1425.01245 386.208984 L 1426.004512 385.953776 L 1427.988636 385.507161 L 1429.012701 385.283854 L 1430.004763 385.092448 L 1431.988887 384.773437 L 1433.012951 384.613932 L 1434.005013 384.486328 L 1434.997076 384.390625 L 1435.989138 384.263021 L 1437.013202 384.199219 L 1438.997326 384.071615 L 1439.989388 384.039714 L 1441.013453 384.007812 L 1442.997577 384.007812 L 1443.989639 384.039714 L 1445.013703 384.071615 L 1446.997828 384.199219 L 1447.98989 384.294922 L 1449.013954 384.390625 L 1450.006016 384.486328 L 1450.998078 384.613932 L 1451.99014 384.773437 L 1453.014205 384.932943 L 1455.990391 385.507161 L 1457.014455 385.730469 L 1458.006517 385.953776 L 1459.990642 386.464193 L 1461.014706 386.751302 L 1462.99883 387.325521 L 1463.990892 387.644531 L 1465.014957 387.963542 L 1467.991143 389.016276 L 1469.015207 389.399089 L 1470.999332 390.164714 L 1471.991394 390.579427 L 1473.015458 390.994141 L 1474.999582 391.823568 L 1475.991644 392.270182 L 1477.015709 392.716797 L 1478.007771 393.195312 L 1478.999833 393.641927 L 1479.991895 394.120443 L 1481.015959 394.598958 L 1482.008021 395.077474 L 1483.000084 395.587891 L 1483.992146 396.066406 L 1484.984208 396.576823 L 1486.008272 397.08724 L 1488.984459 398.61849 L 1490.008523 399.160807 L 1491.000585 399.671224 L 1491.992647 400.213542 L 1492.984709 400.723958 L 1494.008773 401.266276 L 1495.000836 401.776693 L 1496.98496 402.861328 L 1498.009024 403.371745 L 1499.001086 403.914062 L 1499.993148 404.424479 L 1500.985211 404.966797 L 1502.009275 405.477214 L 1504.985461 407.008464 L 1506.009525 407.51888 L 1507.001588 408.029297 L 1507.99365 408.507812 L 1508.985712 409.018229 L 1510.009776 409.496745 L 1511.9939 410.453776 L 1512.985963 410.900391 L 1514.010027 411.378906 L 1515.002089 411.825521 L 1515.994151 412.240234 L 1516.986213 412.686849 L 1518.010277 413.101562 L 1519.994402 413.93099 L 1520.986464 414.313802 L 1522.010528 414.696615 L 1523.00259 415.047526 L 1523.994652 415.430339 L 1524.986715 415.78125 L 1526.010779 416.10026 L 1527.994903 416.738281 L 1528.986965 417.025391 L 1530.011029 417.3125 L 1531.003092 417.599609 L 1531.995154 417.854818 L 1532.987216 418.078125 L 1534.01128 418.333333 L 1535.003342 418.52474 L 1535.995404 418.748047 L 1536.987467 418.939453 L 1538.011531 419.098958 L 1539.003593 419.258464 " transform="matrix(0.122063,0,0,0.122449,-1.647846,-46.22449)"/>
</g>
</svg>
