<svg width="16" height="16" viewBox="0 0 16 16" fill="none" xmlns="http://www.w3.org/2000/svg">
<path fill-rule="evenodd" clip-rule="evenodd" d="M5.14652 10.8536C4.95126 10.6583 4.95126 10.3417 5.14652 10.1464L10.1466 5.14639C10.3418 4.95112 10.6584 4.95112 10.8537 5.14639C11.049 5.34165 11.049 5.65823 10.8537 5.85349L5.85363 10.8536C5.65837 11.0488 5.34178 11.0488 5.14652 10.8536Z" fill="#C8C9D0"/>
<path fill-rule="evenodd" clip-rule="evenodd" d="M10.8536 10.8536C10.6583 11.0489 10.3417 11.0489 10.1464 10.8536L5.14639 5.85354C4.95112 5.65828 4.95112 5.34169 5.14639 5.14643C5.34165 4.95117 5.65823 4.95117 5.85349 5.14643L10.8536 10.1465C11.0488 10.3418 11.0488 10.6583 10.8536 10.8536Z" fill="#C8C9D0"/>
<path fill-rule="evenodd" clip-rule="evenodd" d="M8 13C10.7614 13 13 10.7614 13 8C13 5.23858 10.7614 3 8 3C5.23858 3 3 5.23858 3 8C3 10.7614 5.23858 13 8 13ZM8 14C11.3137 14 14 11.3137 14 8C14 4.68629 11.3137 2 8 2C4.68629 2 2 4.68629 2 8C2 11.3137 4.68629 14 8 14Z" fill="#C8C9D0"/>
</svg>
